<svg xmlns="http://www.w3.org/2000/svg" viewBox="0 0 720 480">
  <defs>
    <linearGradient id="g1" x1="0" y1="0" x2="1" y2="1">
      <stop offset="0%" stop-color="#6c5ce7"/>
      <stop offset="100%" stop-color="#40d0ff"/>
    </linearGradient>
  </defs>
  <rect width="720" height="480" rx="40" ry="40" fill="url(#g1)"/>
  <rect x="90" y="160" width="520" height="200" rx="28" ry="28" fill="#0f1635" opacity="0.9"/>
  <rect x="480" y="220" width="90" height="110" rx="22" ry="22" fill="#fff" opacity="0.16"/>
  <circle cx="180" cy="360" r="46" fill="#fff" opacity="0.95"/>
  <circle cx="180" cy="360" r="26" fill="#0f1635"/>
  <circle cx="520" cy="360" r="46" fill="#fff" opacity="0.95"/>
  <circle cx="520" cy="360" r="26" fill="#0f1635"/>
  <path d="M120 210h340v90H120z" fill="#40d0ff" opacity="0.14"/>
  <path d="M120 210h340v90H120z" fill="none" stroke="#fff" stroke-width="10" opacity="0.3"/>
  <path d="M190 240h150M190 280h110" fill="none" stroke="#fff" stroke-width="16" stroke-linecap="round"/>
  <path d="M260 180h100v50h-100z" fill="#ffca3a" stroke="#fff" stroke-width="12" rx="16" ry="16"/>
  <path d="M260 180l18 20h42l18-20" fill="none" stroke="#0f1635" stroke-width="14" stroke-linecap="round"/>
  <text x="50%" y="88%" text-anchor="middle" fill="#fff" font-family="Inter, sans-serif" font-size="48" opacity="0.85">Smart Ambulance</text>
</svg>